<svg xmlns="http://www.w3.org/2000/svg" xmlns:xlink="http://www.w3.org/1999/xlink" viewBox="0 0 595.2 876.01"><defs><style>.cls-1,.cls-2,.cls-3,.cls-4,.cls-5{stroke:#1d1d1b;stroke-miterlimit:10;}.cls-1{fill:url(#Naamloos_verloop_36);}.cls-2{fill:url(#Naamloos_verloop_40);}.cls-3{fill:url(#Naamloos_verloop_36-2);}.cls-4{fill:url(#Naamloos_verloop_20);}.cls-5{fill:url(#Naamloos_verloop_20-2);}</style><linearGradient id="Naamloos_verloop_36" x1="421.31" y1="747.23" x2="421.31" y2="426.82" gradientTransform="matrix(-1.05, 0.35, 0.33, 1, 504.23, -133.54)" gradientUnits="userSpaceOnUse"><stop offset="0.04" stop-color="#fff435"/><stop offset="0.33" stop-color="#ffe941"/><stop offset="1" stop-color="#d62310"/></linearGradient><linearGradient id="Naamloos_verloop_40" x1="245.24" y1="804.77" x2="371.06" y2="459.2" gradientTransform="matrix(0.9, 0, 0, 0.9, 24.56, 46.43)" gradientUnits="userSpaceOnUse"><stop offset="0.04" stop-color="#fff435"/><stop offset="0.26" stop-color="#ffe941"/><stop offset="1" stop-color="#d62310"/></linearGradient><linearGradient id="Naamloos_verloop_36-2" x1="317.39" y1="736.05" x2="244.04" y2="515.04" gradientTransform="matrix(1, 0, 0, 1, 0, 0)" xlink:href="#Naamloos_verloop_36"/><linearGradient id="Naamloos_verloop_20" x1="283.23" y1="416.73" x2="295.04" y2="349.74" gradientUnits="userSpaceOnUse"><stop offset="0" stop-color="#fff568"/><stop offset="0.43" stop-color="#fff435"/><stop offset="1" stop-color="#e52424"/></linearGradient><linearGradient id="Naamloos_verloop_20-2" x1="355.12" y1="420.7" x2="355.12" y2="354.57" xlink:href="#Naamloos_verloop_20"/></defs><title>logo positief en dia positief_Tekengebied 1 [Hersteld]</title><g id="vlammen"><path class="cls-1" d="M189.91,450.15c-7.76,6.12-4.33,15.24-10,30.29-4.56,12-8.11,9.78-15.32,23.49-2.57,4.9-12.33,24-10.55,47.32.79,10.39,3.15,12.12,4.84,28.79a195.15,195.15,0,0,1,.95,23.64,146,146,0,0,0,7.49-23.83c2.95-13.31,2.12-18.56,4.42-26.22,2.4-8,8.26-18.8,24-29.55a141.53,141.53,0,0,0-21.85,53.68c-7.23,40,5.16,72.07,10.93,84.81a232,232,0,0,1,32.47-123.4s-36.15,181.69-32.66,203.19c0,0,48.56-62,56-79.77,0,0,11.25,93.27,14.26,119.68,0,0,11.16-38.35,21.81-81.86,6.15-25.08,8.26-35.19,9.09-39.39a574.52,574.52,0,0,0,9.74-73.45c10.63,17.22,14.13,31.79,15.21,42.4.7,6.8.82,16,2.32,16s3.59-10.1,4.3-13.77a241.94,241.94,0,0,0,3.32-65.09,283.7,283.7,0,0,0-7.79-44.88,59,59,0,0,1,30.28,43.36c10.86-64.31-16-118.65-58.08-133.08-7.84-2.69-28.92-8.36-59.61,2.62h0c-8,3.9-14.22,7.18-18.24,9.35C197.36,449.81,194.16,446.8,189.91,450.15Z" transform="translate(5.87 85.58)"/><path class="cls-2" d="M373,478.17a119.45,119.45,0,0,1,20.47,32.12c8.5,20,8.65,37.21,8.77,50.49a168.43,168.43,0,0,1-5.84,45.28,67.83,67.83,0,0,0-3.95-33.57c-8.07-20.7-24.06-31-29.38-34.08a238.34,238.34,0,0,1,22.44,132.33c-4.77-17.64-10.59-36.45-17.7-56.17-8.16-22.6-16.88-43.23-25.62-61.83,0,0,26.48,176.56,22.3,197.35,0,0-43.08-60.77-49.31-78.06,0,0-14.43,90.24-18.34,115.79,0,0-8.9-37.31-17.13-79.63-4.73-24.39-6.3-34.21-6.91-38.29a566.45,566.45,0,0,1-6.12-71.31c-10.7,16.54-14.59,30.61-16.05,40.88-.94,6.58-1.43,15.46-2.84,15.51s-3-9.84-3.48-13.41a241.78,241.78,0,0,1-.43-63.13A286.87,286.87,0,0,1,253,535.06a59.32,59.32,0,0,0-14.92,11.38,61,61,0,0,0-15.34,30.23c-7.55-62.47,19.93-114.77,60.09-128.19,7.48-2.5,27.53-7.7,55.92,3.35h0C356.29,459.11,364.61,468.48,373,478.17Z" transform="translate(5.87 85.58)"/><path class="cls-3" d="M233.63,528.22c-6.84,7.49-11.1,15.36-15,22.21-12.79,22.27-15.08,61.53-15.31,66.06,0,0,27.43-44,36.15-45.6,0,0-29.38,66.92-23.2,91.19,0,0,33.88-76.84,37.61-80.65,0,0-22.09,123.9-19.56,138.64,0,0,31.5-41.94,36.22-54,0,0,8.38,63.91,10.64,82,0,0,7-26.12,13.61-55.77,3.81-17.1,5.1-24,5.61-26.85a401.23,401.23,0,0,0,5.71-50.14c7.2,11.88,9.66,21.88,10.49,29.15.53,4.65.7,10.93,1.69,11s2.27-6.87,2.71-9.38a170.71,170.71,0,0,0,1.54-44.49,202,202,0,0,0-5.61-30.77,41.86,41.86,0,0,1,10.27,8.33,43.07,43.07,0,0,1,10.2,21.63c6.54-43.88-11.77-81.31-39.76-91.61-5.21-1.92-19.22-6-39.41,1.19h0C245.74,515.13,239.71,521.56,233.63,528.22Z" transform="translate(5.87 85.58)"/></g><g id="hoofd"><image width="2480" height="3508" transform="scale(0.24)" xlink:href="sven%20hoofd.png"/></g><g id="vlammen_neus" data-name="vlammen neus"><path class="cls-4" d="M288,352.85a33.6,33.6,0,0,0-6,4.64c-5.44,4.86-9.57,15.24-10,16.44,0,0,11.33-9.4,13.83-9.06,0,0-13.91,15.41-14.41,22.51,0,0,16-17.68,17.35-18.38,0,0-17,31.42-17.68,35.62,0,0,12.25-8.49,14.6-11.31,0,0-3.46,18-4.47,23.05,0,0,16.88-25.66,18.59-33.55,0,0,1.35,5.31.36,7.8s7.3-9,6.41-16.61c0,0,2.23.58,2.39,4.11,0,0,4.6-20.2-1.94-24.67a21.09,21.09,0,0,0-10.73-3.2h0A16.67,16.67,0,0,0,288,352.85Z" transform="translate(5.87 85.58)"/><path class="cls-5" d="M357.86,357.19a33.51,33.51,0,0,1,6,4.64c5.44,4.86,9.57,15.24,10,16.44,0,0-11.33-9.4-13.82-9.06,0,0,13.9,15.41,14.41,22.51,0,0-16-17.68-17.35-18.38,0,0,17,31.42,17.67,35.62,0,0-12.24-8.49-14.59-11.31,0,0,3.46,18,4.47,23.05,0,0-16.89-25.65-18.6-33.55,0,0-1.34,5.31-.35,7.8s-7.31-9-6.41-16.61c0,0-2.23.58-2.39,4.11,0,0-4.6-20.2,1.94-24.67a21.06,21.06,0,0,1,10.73-3.2h0A16.7,16.7,0,0,1,357.86,357.19Z" transform="translate(5.87 85.58)"/></g></svg>